<svg id="main-logo" viewBox="0 0 34 32" xmlns="http://www.w3.org/2000/svg">
<path d="M18.453 16.031l7.862 9.411h-4.898l-5.813-6.882-5.806 6.887h-4.893l7.827-9.415-7.82-9.325h4.885l5.785 6.561 5.831-6.562h4.897zM28.165 20.629c-1.525-1.854-3.371-3.381-5.462-4.513l-0.097-0.048c1.712-0.907 3.179-2.008 4.45-3.304l0.003-0.003c1.372-1.383 2.468-3.043 3.196-4.887l0.034-0.098c0.572-1.508 0.903-3.252 0.903-5.074 0-0.832-0.069-1.648-0.202-2.443l0.012 0.086-0.048-0.332-0.327-0.014s-0.098 0-0.265 0c-2.436 0.040-4.743 0.549-6.849 1.44l0.12-0.045c-3.585 1.479-6.409 4.196-7.989 7.606l-0.039 0.093c-1.611-3.497-4.421-6.212-7.891-7.661l-0.099-0.037c-1.971-0.847-4.261-1.356-6.666-1.396l-0.015-0c-0.166 0-0.258 0-0.261 0l-0.329 0.015-0.048 0.332c-0.121 0.709-0.19 1.525-0.19 2.358 0 1.821 0.331 3.564 0.936 5.174l-0.033-0.101c0.762 1.943 1.857 3.603 3.23 4.987l-0.001-0.001c1.274 1.299 2.741 2.4 4.357 3.26l0.096 0.047c-2.188 1.18-4.033 2.707-5.533 4.529l-0.025 0.032c-1.186 1.471-2.097 3.219-2.62 5.127l-0.023 0.1c-0.308 1.061-0.485 2.279-0.485 3.539 0 0.809 0.073 1.6 0.213 2.368l-0.012-0.080 0.069 0.305 0.306 0.011c0.243 0.007 0.49 0.013 0.729 0.013 0.19 0.008 0.412 0.013 0.636 0.013 4.417 0 8.394-1.886 11.169-4.896l0.010-0.011c1.002-1.116 1.844-2.403 2.471-3.808l0.037-0.093c0.672 1.497 1.519 2.785 2.537 3.915l-0.012-0.013c2.795 3.017 6.778 4.9 11.201 4.9 0.224 0 0.447-0.005 0.669-0.014l-0.032 0.001c0.239 0 0.484 0 0.727-0.013l0.305-0.010 0.070-0.305c0.128-0.688 0.201-1.479 0.201-2.288 0-1.26-0.177-2.479-0.508-3.632l0.023 0.093c-0.548-2.007-1.46-3.753-2.668-5.251l0.021 0.027zM30.371 31.189c-0.128 0-0.255 0-0.381 0v0c-0.192 0.009-0.417 0.014-0.643 0.014-4.175 0-7.937-1.773-10.572-4.607l-0.008-0.009c-1.186-1.292-2.124-2.833-2.727-4.533l-0.029-0.093-0.384-1.334-0.381 1.337c-0.625 1.792-1.557 3.333-2.745 4.636l0.009-0.010c-2.632 2.842-6.384 4.615-10.549 4.615-0.229 0-0.457-0.005-0.683-0.016l0.032 0.001c-0.126 0-0.254 0-0.383 0-0.074-0.521-0.117-1.124-0.117-1.736 0-1.204 0.164-2.369 0.471-3.475l-0.022 0.091c0.747-2.812 2.834-6.769 8.515-9.653l0.8-0.406-0.83-0.339c-1.918-0.891-3.555-2.060-4.939-3.476l-0.003-0.003c-2.418-2.391-3.916-5.709-3.916-9.377 0-0.704 0.055-1.396 0.162-2.070l-0.010 0.075c1.969 0.018 10.615 0.619 14.201 9.435l0.368 0.905 0.368-0.905c3.586-8.82 12.307-9.417 14.287-9.435 0.097 0.6 0.152 1.291 0.152 1.995 0 3.658-1.49 6.967-3.895 9.355l-0.001 0.001c-1.392 1.429-3.036 2.605-4.86 3.458l-0.102 0.043-0.831 0.339 0.801 0.406c4.546 2.307 7.407 5.547 8.505 9.615 0.29 1.024 0.456 2.2 0.456 3.415 0 0.614-0.043 1.218-0.125 1.81l0.008-0.068zM32.976 0.021c-0.006-0-0.014-0-0.021-0-0.487 0-0.882 0.395-0.882 0.882s0.395 0.882 0.882 0.882c0.487 0 0.881-0.394 0.882-0.881v-0c0-0.004 0-0.008 0-0.013 0-0.476-0.382-0.863-0.856-0.872h-0.001zM32.976 1.708c-0.006 0-0.012 0-0.019 0-0.444 0-0.804-0.36-0.804-0.804s0.36-0.804 0.804-0.804c0.444 0 0.804 0.36 0.804 0.804 0 0 0 0.001 0 0.001v-0c0 0.002 0 0.004 0 0.007 0 0.434-0.348 0.787-0.78 0.796h-0.001zM33.165 0.991c-0.021-0.018-0.045-0.033-0.071-0.045l-0.002-0.001c0.075-0.006 0.143-0.038 0.193-0.087l-0 0c0.039-0.042 0.063-0.099 0.063-0.161 0-0.002-0-0.004-0-0.006v0c0-0.001 0-0.002 0-0.002 0-0.051-0.014-0.098-0.039-0.138l0.001 0.001c-0.022-0.040-0.057-0.071-0.098-0.088l-0.001-0.001c-0.048-0.017-0.103-0.026-0.161-0.026-0.008 0-0.017 0-0.025 0.001l0.001-0h-0.403v0.929h0.121v-0.415h0.14c0.010-0.001 0.021-0.002 0.033-0.002s0.023 0.001 0.034 0.002l-0.001-0c0.021 0.006 0.039 0.014 0.055 0.025l-0.001-0c0.024 0.017 0.045 0.038 0.062 0.061l0.001 0.001c0.021 0.031 0.050 0.073 0.085 0.128l0.119 0.194h0.15l-0.158-0.253c-0.029-0.045-0.062-0.085-0.099-0.119l-0-0zM33.002 0.849h-0.258v-0.31h0.288c0.005-0 0.011-0.001 0.017-0.001 0.049 0 0.094 0.016 0.129 0.044l-0.001-0c0.028 0.026 0.046 0.063 0.046 0.104 0 0.001 0 0.002-0 0.002v-0c0 0.002 0 0.003 0 0.005 0 0.029-0.009 0.056-0.025 0.077l0-0c-0.016 0.026-0.040 0.045-0.068 0.055l-0.001 0c-0.037 0.014-0.080 0.021-0.124 0.021-0.001 0-0.003 0-0.004-0h0z"></path>
</svg>